<mxfile host="app.diagrams.net" modified="2024-06-04T10:09:00.432Z" agent="Mozilla/5.0 (Windows NT 10.0; Win64; x64) AppleWebKit/537.36 (KHTML, like Gecko) Chrome/125.0.0.0 Safari/537.36" version="24.4.13" etag="7BnA9tXivF0FEHVhsBVa" type="github">
  <diagram name="Page-1" id="KmWgj-T7bs2R13FezJ1b">
    <mxGraphModel>
      <root>
        <mxCell id="0" />
        <mxCell id="1" parent="0" />
      </root>
    </mxGraphModel>
  </diagram>
</mxfile>
